<?xml version="1.0" encoding="UTF-8" standalone="no"?>
<!-- Uploaded to: SVG Repo, www.svgrepo.com, Generator: SVG Repo Mixer Tools -->

<svg
   viewBox="0 -4.5 512 512"
   version="1.1"
   id="svg1"
   sodipodi:docname="icon.svg"
   inkscape:version="1.3.2 (091e20e, 2023-11-25, custom)"
   xml:space="preserve"
   width="512"
   height="512"
   inkscape:export-filename="icon.png"
   inkscape:export-xdpi="48"
   inkscape:export-ydpi="48"
   xmlns:inkscape="http://www.inkscape.org/namespaces/inkscape"
   xmlns:sodipodi="http://sodipodi.sourceforge.net/DTD/sodipodi-0.dtd"
   xmlns:xlink="http://www.w3.org/1999/xlink"
   xmlns="http://www.w3.org/2000/svg"
   xmlns:svg="http://www.w3.org/2000/svg"><defs
     id="defs1"><inkscape:path-effect
       effect="fillet_chamfer"
       id="path-effect10"
       is_visible="true"
       lpeversion="1"
       nodesatellites_param="F,0,0,1,0,16,0,1 @ F,0,1,1,0,2,0,1 @ F,0,0,1,0,16,0,1 @ F,0,0,1,0,9,0,1 @ F,0,0,1,0,0,0,1 @ F,0,0,1,0,0,0,1 @ F,0,0,1,0,0,0,1 @ F,0,0,1,0,0,0,1 @ F,0,0,1,0,0,0,1 @ F,0,0,1,0,0,0,1 @ F,0,0,1,0,0,0,1 @ F,0,0,1,0,0,0,1 @ F,0,0,1,0,0,0,1 @ F,0,0,1,0,0,0,1 @ F,0,0,1,0,0,0,1 @ F,0,0,1,0,0,0,1 @ F,0,0,1,0,0,0,1 @ F,0,0,1,0,0,0,1 @ F,0,0,1,0,0,0,1 @ F,0,0,1,0,0,0,1 @ F,0,0,1,0,0,0,1 @ F,0,0,1,0,0,0,1 @ F,0,0,1,0,0,0,1 @ F,0,0,1,0,0,0,1 @ F,0,0,1,0,0,0,1 @ F,0,0,1,0,0,0,1 @ F,0,0,1,0,0,0,1 @ F,0,0,1,0,0,0,1 @ F,0,0,1,0,0,0,1 @ F,0,0,1,0,0,0,1 @ F,0,0,1,0,0,0,1 @ F,0,0,1,0,0,0,1 @ F,0,0,1,0,0,0,1"
       radius="2"
       unit="px"
       method="auto"
       mode="F"
       chamfer_steps="1"
       flexible="false"
       use_knot_distance="true"
       apply_no_radius="true"
       apply_with_radius="true"
       only_selected="true"
       hide_knots="false" /><inkscape:path-effect
       effect="fillet_chamfer"
       id="path-effect9"
       is_visible="true"
       lpeversion="1"
       nodesatellites_param="F,0,0,1,0,16,0,1 @ F,0,0,1,0,8,0,1 @ F,0,0,1,0,16,0,1 @ F,0,0,1,0,8,0,1 @ F,0,0,1,0,16,0,1 @ F,0,1,1,0,8,0,1 @ F,0,0,1,0,16,0,1 @ F,0,0,1,0,8,0,1 | F,0,0,1,0,0,0,1 @ F,0,0,1,0,0,0,1 @ F,0,0,1,0,0,0,1 | F,0,0,1,0,0,0,1 @ F,0,0,1,0,0,0,1 @ F,0,0,1,0,0,0,1"
       radius="8"
       unit="px"
       method="auto"
       mode="F"
       chamfer_steps="1"
       flexible="false"
       use_knot_distance="true"
       apply_no_radius="true"
       apply_with_radius="true"
       only_selected="true"
       hide_knots="false" /><linearGradient
       id="linearGradient6"
       inkscape:collect="always"><stop
         style="stop-color:#38bdf8;stop-opacity:0.7647059;"
         offset="0"
         id="stop6" /><stop
         style="stop-color:#38bdf8;stop-opacity:0;"
         offset="1"
         id="stop7" /></linearGradient><inkscape:path-effect
       effect="mirror_symmetry"
       start_point="256,-4.5"
       end_point="256,507.5"
       center_point="256,251.5"
       id="path-effect8"
       is_visible="true"
       lpeversion="1.2"
       lpesatellites=""
       mode="vertical"
       discard_orig_path="false"
       fuse_paths="true"
       oposite_fuse="false"
       split_items="false"
       split_open="false"
       link_styles="false" /><inkscape:path-effect
       effect="copy_rotate"
       starting_point="0,0"
       origin="260,256"
       id="path-effect7"
       is_visible="true"
       lpeversion="1.2"
       lpesatellites=""
       method="normal"
       num_copies="2"
       starting_angle="0"
       rotation_angle="180"
       gap="0"
       copies_to_360="true"
       mirror_copies="false"
       split_items="false"
       link_styles="false" /><inkscape:path-effect
       effect="mirror_symmetry"
       start_point="8.8469796,249.21909"
       end_point="512.0625,249.21909"
       center_point="260.45474,249.21909"
       id="path-effect3"
       is_visible="true"
       lpeversion="1.2"
       lpesatellites=""
       mode="horizontal"
       discard_orig_path="false"
       fuse_paths="false"
       oposite_fuse="false"
       split_items="false"
       split_open="false"
       link_styles="false" /><inkscape:path-effect
       effect="fillet_chamfer"
       id="path-effect6"
       is_visible="true"
       lpeversion="1"
       nodesatellites_param="F,0,0,1,0,0,0,1 @ F,0,0,1,0,16,0,1 @ F,0,1,1,0,8,0,1 @ F,0,0,1,0,0,0,1 @ F,0,0,1,0,0,0,1 @ F,0,0,1,0,0,0,1 @ F,0,0,1,0,0,0,1 @ F,0,0,1,0,0,0,1 @ F,0,0,1,0,0,0,1 @ F,0,0,1,0,0,0,1 @ F,0,0,1,0,0,0,1 @ F,0,0,1,0,0,0,1 | F,0,0,1,0,8,0,1 @ F,0,0,1,0,8,0,1 @ F,0,0,1,0,8,0,1 @ F,0,0,1,0,8,0,1 @ F,0,0,1,0,8,0,1 @ F,0,0,1,0,8,0,1 @ F,0,0,1,0,8,0,1 @ F,0,0,1,0,8,0,1 @ F,0,0,1,0,8,0,1 @ F,0,0,1,0,8,0,1 @ F,0,0,1,0,8,0,1 @ F,0,0,1,0,8,0,1"
       radius="8"
       unit="px"
       method="auto"
       mode="F"
       chamfer_steps="1"
       flexible="false"
       use_knot_distance="true"
       apply_no_radius="true"
       apply_with_radius="true"
       only_selected="true"
       hide_knots="false" /><inkscape:path-effect
       effect="fillet_chamfer"
       id="path-effect5"
       is_visible="true"
       lpeversion="1"
       nodesatellites_param="F,0,0,1,0,15,0,1 @ F,0,0,1,0,15,0,1 @ F,0,0,1,0,15,0,1"
       radius="15"
       unit="px"
       method="auto"
       mode="F"
       chamfer_steps="1"
       flexible="false"
       use_knot_distance="true"
       apply_no_radius="true"
       apply_with_radius="true"
       only_selected="false"
       hide_knots="false" /><inkscape:path-effect
       effect="fillet_chamfer"
       id="path-effect4"
       is_visible="true"
       lpeversion="1"
       nodesatellites_param="F,0,0,1,0,64,0,1 @ F,0,0,1,0,64,0,1 @ F,0,0,1,0,64,0,1 @ F,0,0,1,0,64,0,1"
       radius="64"
       unit="px"
       method="auto"
       mode="F"
       chamfer_steps="1"
       flexible="false"
       use_knot_distance="true"
       apply_no_radius="true"
       apply_with_radius="true"
       only_selected="false"
       hide_knots="false" /><inkscape:path-effect
       effect="fillet_chamfer"
       id="path-effect2"
       is_visible="true"
       lpeversion="1"
       nodesatellites_param="F,0,0,1,0,38,0,1 @ F,0,0,1,0,38,0,1 @ F,0,0,1,0,38,0,1 @ F,0,0,1,0,38,0,1"
       radius="38"
       unit="px"
       method="auto"
       mode="F"
       chamfer_steps="1"
       flexible="false"
       use_knot_distance="true"
       apply_no_radius="true"
       apply_with_radius="true"
       only_selected="false"
       hide_knots="false" /><linearGradient
       inkscape:collect="always"
       xlink:href="#linearGradient6"
       id="linearGradient7"
       x1="531.38049"
       y1="44.934299"
       x2="531.38049"
       y2="488.97595"
       gradientUnits="userSpaceOnUse" /></defs><sodipodi:namedview
     id="namedview1"
     pagecolor="#ffffff"
     bordercolor="#000000"
     borderopacity="0.25"
     inkscape:showpageshadow="2"
     inkscape:pageopacity="0.0"
     inkscape:pagecheckerboard="0"
     inkscape:deskcolor="#d1d1d1"
     inkscape:zoom="1"
     inkscape:cx="211"
     inkscape:cy="234"
     inkscape:window-width="1920"
     inkscape:window-height="991"
     inkscape:window-x="1671"
     inkscape:window-y="1071"
     inkscape:window-maximized="1"
     inkscape:current-layer="svg1" /><path
     id="path1"
     style="fill:#539b53;fill-opacity:1;fill-rule:evenodd;stroke:none;stroke-width:0;stroke-linejoin:round;stroke-opacity:1"
     d="m 256,131.869 a 54.220514,54.220537 0 0 0 -54.22056,54.22054 54.220514,54.220537 0 0 0 4.76013,22.14935 l -76.4596,68.74308 A 58.133318,58.133343 0 0 0 96.13318,266.0228 58.133318,58.133343 0 0 0 38,324.15646 a 58.133318,58.133343 0 0 0 58.13318,58.13321 58.133318,58.133343 0 0 0 35.12614,-11.9964 l 66.59877,51.79731 A 62.60514,62.605167 0 0 0 193.39486,444.89483 62.60514,62.605167 0 0 0 256,507.5 62.60514,62.605167 0 0 0 318.60514,444.89483 62.60514,62.605167 0 0 0 269.9743,383.88772 V 238.39733 a 54.220514,54.220537 0 0 0 17.76271,-8.50907 l 76.15155,68.46583 a 58.133318,58.133343 0 0 0 -6.15538,25.80237 58.133318,58.133343 0 0 0 58.13364,58.13321 A 58.133318,58.133343 0 0 0 474,324.15646 58.133318,58.133343 0 0 0 415.86682,266.0228 58.133318,58.133343 0 0 0 382.01367,277.06493 L 305.46043,208.23889 A 54.220514,54.220537 0 0 0 310.22056,186.08954 54.220514,54.220537 0 0 0 256,131.869 Z m -31.73701,98.01926 a 54.220514,54.220537 0 0 0 17.76271,8.50907 V 384.0279 a 62.60514,62.605167 0 0 0 -28.39442,14.92419 l -64.76643,-50.37346 a 58.133318,58.133343 0 0 0 5.40197,-24.42217 58.133318,58.133343 0 0 0 -6.08793,-25.86154 z" /><path
     style="fill:url(#linearGradient7);fill-rule:evenodd;stroke:#000000;stroke-width:0;stroke-linejoin:round"
     d="M 482.40577,-3.1621687 343.03326,83.345271 a 4.0660184,4.0660184 174.36417 0 1 -3.57194,0.352487 L 185.6473,26.017938 a 32.528147,32.528147 174.36417 0 0 -28.57551,2.819893 L 23.646753,111.65372 A 16.178962,16.178962 119.08622 0 0 16,125.4 v 181.05117 c 8.188495,-36.67104 41.133882,-64.42765 80.132812,-64.42773 h 0.0098 c 10.434578,0.004 20.625528,2.22322 30.212888,6.0332 l 52.86133,-47.52539 c -0.89621,-4.7434 -1.4315,-9.55866 -1.4375,-14.41211 v -0.0293 c -10e-6,-42.91561 35.30506,-78.22074 78.2207,-78.2207 42.91564,-4e-5 78.22075,35.30523 78.2207,78.2207 v 0.002 0.002 0.002 0.002 0.002 0.002 0.002 0.002 0.002 0.002 0.002 0.002 0.002 0.002 0.002 c -0.006,4.85335 -0.53938,9.66881 -1.43554,14.41211 l 52.92187,47.58008 c 9.53723,-3.81124 19.6749,-6.04609 30.0625,-6.08789 0.0326,-7e-5 0.0651,-7e-5 0.0977,0 38.99895,8e-5 71.94432,27.75669 80.13281,64.42773 L 496,4.4 a 8.9004498,8.9004498 29.086216 0 0 -13.59423,-7.5621687 z"
     id="path6"
     inkscape:path-effect="#path-effect10"
     inkscape:original-d="M 496,-11.6 341.33398,84.4 170.66602,20.4 16,116.4 v 190.05117 c 8.188495,-36.67104 41.133882,-64.42765 80.132812,-64.42773 h 0.0098 c 10.434578,0.004 20.625528,2.22322 30.212888,6.0332 l 52.86133,-47.52539 c -0.89621,-4.7434 -1.4315,-9.55866 -1.4375,-14.41211 v -0.0293 c -10e-6,-42.91561 35.30506,-78.22074 78.2207,-78.2207 42.91564,-4e-5 78.22075,35.30523 78.2207,78.2207 v 0.002 0.002 0.002 0.002 0.002 0.002 0.002 0.002 0.002 0.002 0.002 0.002 0.002 0.002 0.002 c -0.006,4.85335 -0.53938,9.66881 -1.43554,14.41211 l 52.92187,47.58008 c 9.53723,-3.81124 19.6749,-6.04609 30.0625,-6.08789 0.0326,-7e-5 0.0651,-7e-5 0.0977,0 38.99895,8e-5 71.94432,27.75669 80.13281,64.42773 z"
     sodipodi:nodetypes="cccccssccsscsccccccccccccccsccsccc" /><path
     id="rect2"
     style="display:inline;fill:#38bdf8;fill-opacity:1;fill-rule:evenodd;stroke:#000000;stroke-width:0;stroke-linejoin:round"
     d="M 482.40577,3.9378313 348.13109,87.281084 a 16.264074,16.264074 174.36417 0 1 -14.28775,1.409947 L 185.6473,33.117938 a 32.528147,32.528147 174.36417 0 0 -28.57551,2.819893 L 22.797113,119.28108 A 14.3813,14.3813 119.08622 0 0 16,131.5 8.9004473,8.9004473 29.086223 0 0 29.594227,139.06217 L 163.86891,55.718916 a 16.264074,16.264074 174.36417 0 1 14.28775,-1.409947 L 326.3527,109.88206 a 32.528147,32.528147 174.36417 0 0 28.57551,-2.81989 L 489.20289,23.718916 A 14.3813,14.3813 119.08622 0 0 496,11.5 8.9004473,8.9004473 29.086223 0 0 482.40577,3.9378313 Z M 178.83594,197.93555 c -0.18083,1.13625 -0.39677,2.26078 -0.52735,3.41211 l 0.90821,-0.81641 c -0.16236,-0.85929 -0.2432,-1.73189 -0.38086,-2.5957 z m 154.33008,0.004 c -0.1374,0.86257 -0.21875,1.73376 -0.38086,2.5918 l 0.90625,0.81445 c -0.13037,-1.14928 -0.34495,-2.27198 -0.52539,-3.40625 z"
     inkscape:path-effect="#path-effect9"
     inkscape:original-d="M 496,-4.5 341.33398,91.5 170.66602,27.5 16,123.5 v 24 l 154.66602,-96 170.66796,64 L 496,19.5 Z M 178.83594,197.93555 c -0.18083,1.13625 -0.39677,2.26078 -0.52735,3.41211 l 0.90821,-0.81641 c -0.16236,-0.85929 -0.2432,-1.73189 -0.38086,-2.5957 z m 154.33008,0.004 c -0.1374,0.86257 -0.21875,1.73376 -0.38086,2.5918 l 0.90625,0.81445 c -0.13037,-1.14928 -0.34495,-2.27198 -0.52539,-3.40625 z"
     transform="translate(0,-7.0995508)" /></svg>
